<?xml version="1.0" encoding="UTF-8" standalone="no"?>
<!-- Generator: Adobe Illustrator 18.0.0, SVG Export Plug-In . SVG Version: 6.00 Build 0)  -->

<svg
   xmlns:dc="http://purl.org/dc/elements/1.1/"
   xmlns:cc="http://creativecommons.org/ns#"
   xmlns:rdf="http://www.w3.org/1999/02/22-rdf-syntax-ns#"
   xmlns:svg="http://www.w3.org/2000/svg"
   xmlns="http://www.w3.org/2000/svg"
   xmlns:sodipodi="http://sodipodi.sourceforge.net/DTD/sodipodi-0.dtd"
   xmlns:inkscape="http://www.inkscape.org/namespaces/inkscape"
   version="1.1"
   id="Layer_1"
   inkscape:version="0.92.4 (5da689c313, 2019-01-14)"
   inkscape:export-ydpi="96"
   inkscape:export-xdpi="96"
   inkscape:export-filename="C:\Users\gary\Downloads\header-logo.png"
   sodipodi:docname="header-logo-20th.svg"
   x="0px"
   y="0px"
   viewBox="0 0 293.2 71.9"
   enable-background="new 0 0 293.2 71.9"
   xml:space="preserve"><metadata
   id="metadata387"><rdf:RDF><cc:Work
       rdf:about=""><dc:format>image/svg+xml</dc:format><dc:type
         rdf:resource="http://purl.org/dc/dcmitype/StillImage" /><dc:title></dc:title></cc:Work></rdf:RDF></metadata><defs
   id="defs385" />
<sodipodi:namedview
   inkscape:cy="20.244738"
   inkscape:cx="47.802872"
   inkscape:zoom="2.1284015"
   showgrid="false"
   guidetolerance="10"
   gridtolerance="10"
   objecttolerance="10"
   bordercolor="#666666"
   pagecolor="#ffffff"
   borderopacity="1"
   id="namedview40"
   inkscape:current-layer="Layer_1"
   inkscape:window-maximized="1"
   inkscape:window-y="-8"
   inkscape:window-x="-8"
   inkscape:window-height="1009"
   inkscape:window-width="1920"
   inkscape:pageshadow="2"
   inkscape:pageopacity="0"
   showguides="true"
   inkscape:guide-bbox="true">
	</sodipodi:namedview>
<g
   id="g37">
	
		<linearGradient
   id="path15_1_"
   gradientUnits="userSpaceOnUse"
   x1="16.3668"
   y1="105.8748"
   x2="69.6803"
   y2="158.2528"
   gradientTransform="matrix(1 0 0 1 -6 -95)">
		<stop
   offset="0"
   style="stop-color:#FFFFFF"
   id="stop317" />
		<stop
   offset="1"
   style="stop-color:#848484"
   id="stop319" />
	</linearGradient>
	<path
   id="path15"
   fill="url(#path15_1_)"
   d="M34.6,67c0-1.1,10-2,22.6-2.1c1.6-1.2,3-2.4,4.4-3.8c-0.8,0-1.6,0-2.5,0   c-13.6,0-24.6-0.9-24.6-2.1s11-2.1,24.6-2.1c2,0,4,0,5.9,0.1c0.9-1.3,1.8-2.6,2.5-4C65,53,62.2,53,59.2,53   c-13.6,0-24.6-0.9-24.6-2.1s11-2.1,24.6-2.1c3.7,0,7.1,0.1,10.2,0.2c0.5-1.4,1-2.8,1.4-4.3c-3.5,0.2-7.4,0.3-11.6,0.3   c-13.6,0-24.6-0.9-24.6-2.1s11-2.1,24.6-2.1c4.5,0,8.7,0.1,12.3,0.3c0.2-1.4,0.3-2.9,0.4-4.4c-3.7,0.2-8,0.3-12.7,0.3   c-13.6,0-24.6-0.9-24.6-2.1s11-2.1,24.6-2.1c4.6,0,8.9,0.1,12.6,0.3c-0.1-1.5-0.3-2.9-0.6-4.4c-3.5,0.2-7.6,0.3-12,0.3   c-13.6,0-24.6-0.9-24.6-2.1s11-2.1,24.6-2.1c3.9,0,7.7,0.1,11,0.2c-0.5-1.4-1-2.8-1.6-4.2c-2.9,0.1-6,0.2-9.3,0.2   c-13.6,0-24.6-0.9-24.6-2.1s11-2.1,24.6-2.1c2.5,0,4.9,0,7.2,0.1c-0.9-1.4-1.8-2.7-2.9-3.9c-1.4,0-2.8,0-4.3,0   c-13.6,0-24.6-0.9-24.6-2.1s11-2.1,24.6-2.1c0,0,0.1,0,0.1,0c-1.3-1.1-2.7-2.1-4.1-3.1c-11.7-0.2-20.6-1-20.6-2.1   c0-0.8,4.9-1.5,12.2-1.8C43.4,0.6,39.7,0,35.9,0C16.1,0,0,16.1,0,35.9s16.1,35.9,35.9,35.9c5,0,9.8-1,14.2-2.9   C41.1,68.7,34.6,67.9,34.6,67z" />
</g>
<g
   enable-background="new    "
   id="g342">
	<path
   fill="#D1D3D4"
   d="M109.7,13V8.5h3v11.6h-3v-4.4H96.8v4.4h-3V8.5h3V13H109.7z"
   id="path324" />
	<path
   fill="#D1D3D4"
   d="M130.8,15.4v-2.2c-0.1-0.4-0.4-0.8-0.8-1.1s-1-0.5-1.8-0.5h-13.3V8.5H130c1,0,1.9,0.3,2.7,0.9   c0.7,0.6,1.1,1.2,1.1,2v5.8c0,0.8-0.4,1.5-1.1,2.1c-0.7,0.6-1.6,0.8-2.7,0.8h-15.1v-7.3h3V17h10.4c0.6,0,1.2-0.2,1.7-0.5   C130.5,16.2,130.8,15.8,130.8,15.4z"
   id="path326" />
	<path
   fill="#D1D3D4"
   d="M151.8,15.4v-2.2c-0.1-0.4-0.4-0.8-0.8-1.1s-1-0.5-1.8-0.5h-13.3V8.5H151c1,0,1.9,0.3,2.7,0.9   c0.7,0.6,1.1,1.2,1.1,2v5.8c0,0.8-0.4,1.5-1.1,2.1c-0.7,0.6-1.6,0.8-2.7,0.8h-15.1v-7.3h3V17h10.4c0.6,0,1.2-0.2,1.7-0.5   C151.5,16.2,151.8,15.8,151.8,15.4z"
   id="path328" />
	<path
   fill="#D1D3D4"
   d="M184.7,12.9v-1.3h-15.8V8.5H184c0.5,0,1,0.1,1.5,0.2c0.5,0.1,0.9,0.3,1.2,0.6s0.6,0.6,0.8,1   s0.3,0.8,0.3,1.4v1.3c-0.1,0.8-0.7,1.3-2,1.5c1.3,0.1,1.9,0.5,2,1.3v1.3c0,0.5-0.1,1-0.3,1.3c-0.2,0.4-0.5,0.7-0.8,1   c-0.3,0.3-0.7,0.5-1.2,0.6c-0.5,0.1-1,0.2-1.5,0.2h-15.1v-7.2H184.7z M184.7,15.7h-12.8v1.4h12.8V15.7z"
   id="path330" />
	<path
   fill="#D1D3D4"
   d="M201.7,15.7h-8.8v4.5h-3v-7.2h15.8v-1.3h-15.8V8.5H205c0.5,0,1,0.1,1.5,0.2c0.5,0.1,0.9,0.3,1.2,0.6   c0.3,0.3,0.6,0.6,0.8,1s0.3,0.8,0.3,1.4v1.3c0,1-0.3,1.7-0.9,2.1s-1.6,0.6-2.9,0.6l3.8,4.5h-3.3L201.7,15.7z"
   id="path332" />
	<path
   fill="#D1D3D4"
   d="M210.9,17.3v-5.8c0-0.8,0.4-1.5,1.1-2c0.7-0.6,1.6-0.9,2.7-0.9H226c1,0,1.9,0.3,2.7,0.9   c0.7,0.6,1.1,1.2,1.1,2v5.8c0,0.8-0.4,1.5-1.1,2.1c-0.7,0.6-1.6,0.8-2.7,0.8h-11.3c-1.1,0-1.9-0.3-2.7-0.8   C211.3,18.7,210.9,18.1,210.9,17.3z M226.8,15.4v-2.2c-0.1-0.4-0.4-0.8-0.8-1.1s-1-0.5-1.8-0.5h-7.8c-0.7,0-1.3,0.1-1.8,0.4   c-0.5,0.3-0.7,0.7-0.8,1.1v2.2c0,0.2,0.1,0.4,0.2,0.6c0.1,0.2,0.3,0.4,0.5,0.5s0.5,0.3,0.8,0.3s0.6,0.1,1,0.1h7.8   c0.7,0,1.3-0.2,1.8-0.5C226.6,16.2,226.8,15.8,226.8,15.4z"
   id="path334" />
	<path
   fill="#D1D3D4"
   d="M243.8,15.7H235v4.5h-3V8.5h3V13h8.8l3.8-4.5h3.3l-4.8,5.8l4.8,5.9h-3.3L243.8,15.7z"
   id="path336" />
	<path
   fill="#D1D3D4"
   d="M253,11.6v-0.2c0-0.8,0.4-1.5,1.1-2c0.7-0.6,1.6-0.9,2.7-0.9h15.1v3.1H253z M271.9,17v3.2h-15.1   c-1.1,0-1.9-0.3-2.7-0.8c-0.7-0.6-1.1-1.3-1.1-2.1v-4.3h18.9v2.8H256V17H271.9z"
   id="path338" />
	<path
   fill="#D1D3D4"
   d="M285.8,15.7H277v4.5h-3v-7.2h15.8v-1.3H274V8.5h15.1c0.5,0,1,0.1,1.5,0.2c0.5,0.1,0.9,0.3,1.2,0.6   c0.3,0.3,0.6,0.6,0.8,1s0.3,0.8,0.3,1.4v1.3c0,1-0.3,1.7-0.9,2.1s-1.6,0.6-2.9,0.6l3.8,4.5h-3.3L285.8,15.7z"
   id="path340" />
</g>

<text
   xml:space="preserve"
   style="font-style:normal;font-variant:normal;font-weight:normal;font-stretch:normal;font-size:40px;line-height:1.25;font-family:Dodger;-inkscape-font-specification:'Dodger, Normal';font-variant-ligatures:normal;font-variant-caps:normal;font-variant-numeric:normal;font-feature-settings:normal;text-align:start;letter-spacing:0px;word-spacing:0px;writing-mode:lr-tb;text-anchor:start;fill:#d1d3d4;fill-opacity:1;stroke:none"
   x="93.658882"
   y="43.498642"
   id="text4694-6-5"><tspan
     sodipodi:role="line"
     id="tspan4692-4"
     x="93.658882"
     y="43.498642"
     style="font-style:normal;font-variant:normal;font-weight:normal;font-stretch:normal;font-size:21.33333397px;font-family:Arial;-inkscape-font-specification:'Arial, Normal';font-variant-ligatures:normal;font-variant-caps:normal;font-variant-numeric:normal;font-feature-settings:normal;text-align:start;writing-mode:lr-tb;text-anchor:start;fill:#d1d3d4;fill-opacity:1">+1.239.237.3744</tspan></text>
</svg>